mtllib material.mtl
usemtl material_0
v 0.22748300 -0.22279700 0.00697700
v 0.22748300 -0.22279700 0.00697700
v 0.22748300 -0.22279700 0.00697700
v 0.22321100 -0.22718700 0.00314300
v 0.22321100 -0.22718700 0.00314300
v 0.22321100 -0.22718700 0.00314300
v 0.22376700 -0.22268100 0.00106900
v 0.22376700 -0.22268100 0.00106900
v 0.22376700 -0.22268100 0.00106900
v 0.22376700 -0.22268100 0.00106900
v 0.22376700 -0.22268100 0.00106900
v -0.22508300 -0.22316100 0.00120600
v -0.22508300 -0.22316100 0.00120600
v -0.22508300 -0.22316100 0.00120600
v -0.22508300 -0.22316100 0.00120600
v -0.22508300 -0.22316100 0.00120600
v -0.22394100 -0.22771500 0.00296600
v -0.22394100 -0.22771500 0.00296600
v -0.22394100 -0.22771500 0.00296600
v 0.22539600 -0.22326700 0.22919100
v 0.22539600 -0.22326700 0.22919100
v 0.22539600 -0.22326700 0.22919100
v 0.22362300 -0.22343200 0.22601000
v 0.22362300 -0.22343200 0.22601000
v 0.22362300 -0.22343200 0.22601000
v 0.22347000 -0.22675100 0.22609000
v 0.22347000 -0.22675100 0.22609000
v 0.22347000 -0.22675100 0.22609000
v -0.22521000 -0.22250200 0.23118700
v -0.22521000 -0.22250200 0.23118700
v -0.22521000 -0.22250200 0.23118700
v -0.22574700 -0.22367100 0.22560200
v -0.22574700 -0.22367100 0.22560200
v -0.22574700 -0.22367100 0.22560200
v -0.22574700 -0.22367100 0.22560200
v -0.22574700 -0.22367100 0.22560200
v -0.22574700 -0.22367100 0.22560200
v -0.22362100 -0.07384300 0.22951500
v -0.22362100 -0.07384300 0.22951500
v -0.22362100 -0.07384300 0.22951500
v -0.22362100 -0.07384300 0.22951500
v -0.22670000 -0.07330600 0.22617600
v -0.22670000 -0.07330600 0.22617600
v -0.22670000 -0.07330600 0.22617600
v -0.21944500 -0.14986000 0.23127400
v -0.21944500 -0.14986000 0.23127400
v -0.21944500 -0.14986000 0.23127400
v -0.22639100 -0.14875200 0.22681600
v -0.22639100 -0.14875200 0.22681600
v -0.22639100 -0.14875200 0.22681600
v -0.22639100 -0.14875200 0.22681600
v -0.22639100 -0.14875200 0.22681600
v -0.22639100 -0.14875200 0.22681600
v -0.22501200 -0.15152600 0.23124300
v -0.22501200 -0.15152600 0.23124300
v -0.22501200 -0.15152600 0.23124300
v 0.22734300 0.22288400 0.00696200
v 0.22734300 0.22288400 0.00696200
v 0.22734300 0.22288400 0.00696200
v 0.22388800 0.22258200 0.00098000
v 0.22388800 0.22258200 0.00098000
v 0.22388800 0.22258200 0.00098000
v 0.22388800 0.22258200 0.00098000
v 0.22388800 0.22258200 0.00098000
v 0.22343800 0.22713100 0.00354500
v 0.22343800 0.22713100 0.00354500
v 0.22343800 0.22713100 0.00354500
v -0.22392700 0.22776400 0.00277200
v -0.22392700 0.22776400 0.00277200
v -0.22392700 0.22776400 0.00277200
v -0.22492200 0.22331900 0.00123600
v -0.22492200 0.22331900 0.00123600
v -0.22492200 0.22331900 0.00123600
v -0.22492200 0.22331900 0.00123600
v -0.22492200 0.22331900 0.00123600
v 0.22549100 0.22331200 0.22930900
v 0.22549100 0.22331200 0.22930900
v 0.22549100 0.22331200 0.22930900
v 0.22345300 0.22678400 0.22594800
v 0.22345300 0.22678400 0.22594800
v 0.22345300 0.22678400 0.22594800
v 0.22347100 0.22343000 0.22591400
v 0.22347100 0.22343000 0.22591400
v 0.22347100 0.22343000 0.22591400
v -0.22616100 0.22270000 0.22557700
v -0.22616100 0.22270000 0.22557700
v -0.22616100 0.22270000 0.22557700
v -0.22616100 0.22270000 0.22557700
v -0.22616100 0.22270000 0.22557700
v -0.22635600 0.14871300 0.22678800
v -0.22635600 0.14871300 0.22678800
v -0.22635600 0.14871300 0.22678800
v -0.22635600 0.14871300 0.22678800
v -0.22635600 0.14871300 0.22678800
v -0.22052700 0.07284300 0.23086700
v -0.21949400 0.15005800 0.23125000
v -0.21949400 0.15005800 0.23125000
v -0.22541800 0.22629200 0.22530300
v -0.22541800 0.22629200 0.22530300
v -0.22541800 0.22629200 0.22530300
v -0.22524000 0.22248600 0.23110700
v -0.22524000 0.22248600 0.23110700
v -0.22524000 0.22248600 0.23110700
v -0.22501900 0.15144900 0.23123200
v -0.22501900 0.15144900 0.23123200
v -0.22501900 0.15144900 0.23123200
v -0.22567300 0.07394400 0.22851800
v -0.22567300 0.07394400 0.22851800
v -0.22567300 0.07394400 0.22851800
v -0.22567300 0.07394400 0.22851800
v -0.22638400 0.07230800 0.22505200
v -0.22638400 0.07230800 0.22505200
vn 1.00000000 -0.00000000 0.00890000
vn 0.85630000 -0.00000000 -0.51640000
vn 0.01330000 -0.99990000 -0.00270000
vn -0.00290000 -0.99990000 0.01000000
vn 0.00050000 -0.38980000 -0.92090000
vn 0.99590000 -0.09030000 -0.00030000
vn 0.85630000 -0.00000000 -0.51640000
vn 0.99590000 -0.09030000 -0.00030000
vn 0.01330000 -0.99990000 -0.00270000
vn -0.00040000 -0.00010000 -1.00000000
vn 0.00050000 -0.38980000 -0.92090000
vn -0.98060000 -0.19600000 -0.00330000
vn -0.98060000 -0.19600000 -0.00330000
vn 0.00050000 -0.38980000 -0.92090000
vn -1.00000000 -0.00070000 -0.00590000
vn -0.00040000 -0.00010000 -1.00000000
vn -0.00290000 -0.99990000 0.01000000
vn -0.96970000 -0.24450000 -0.00340000
vn 0.00050000 -0.38980000 -0.92090000
vn 1.00000000 -0.00000000 0.00890000
vn 0.00520000 0.00540000 1.00000000
vn 0.00420000 -0.99490000 0.10060000
vn -0.00090000 0.02420000 0.99970000
vn 0.99590000 -0.09030000 -0.00030000
vn 0.00730000 -0.99780000 0.06520000
vn 0.99590000 -0.09030000 -0.00030000
vn -0.00090000 0.02420000 0.99970000
vn -0.00290000 -0.99990000 0.01000000
vn 0.00240000 -0.00140000 1.00000000
vn -0.98230000 -0.00460000 0.18720000
vn -0.00030000 -0.98860000 0.15050000
vn -0.99640000 -0.00850000 0.08430000
vn -0.99640000 -0.00850000 0.08430000
vn -0.00030000 -0.98860000 0.15050000
vn -0.00290000 -0.99990000 0.01000000
vn -0.99640000 -0.00850000 0.08430000
vn -0.00090000 0.02420000 0.99970000
vn -0.87350000 -0.00170000 0.48670000
vn 0.00300000 0.00690000 1.00000000
vn -0.72420000 0.00190000 0.68950000
vn -0.72420000 0.00190000 0.68950000
vn -0.98520000 -0.00130000 0.17170000
vn -0.98520000 -0.00130000 0.17170000
vn -0.73500000 0.00270000 0.67810000
vn -0.54130000 -0.01030000 0.84080000
vn 0.00150000 0.00410000 1.00000000
vn -0.23890000 0.78760000 0.56800000
vn -0.99640000 -0.00680000 0.08450000
vn -0.54870000 -0.00980000 0.83600000
vn -0.54870000 -0.00980000 0.83600000
vn -0.23890000 0.78760000 0.56800000
vn -0.99640000 -0.00680000 0.08450000
vn -1.00000000 -0.00410000 -0.00440000
vn -0.00540000 -0.00080000 1.00000000
vn -0.23890000 0.78760000 0.56800000
vn -0.98230000 -0.00460000 0.18720000
vn 0.85630000 -0.00000000 -0.51640000
vn -0.02830000 0.99960000 -0.00300000
vn 1.00000000 -0.00000000 0.00890000
vn 0.99830000 0.05880000 0.00080000
vn -0.02830000 0.99960000 -0.00300000
vn -0.00040000 -0.00010000 -1.00000000
vn 0.00120000 0.41490000 -0.90990000
vn 0.85630000 -0.00000000 -0.51640000
vn 0.00020000 1.00000000 0.00410000
vn 0.99830000 0.05880000 0.00080000
vn 0.00120000 0.41490000 -0.90990000
vn -0.97720000 0.21220000 -0.00500000
vn 0.00020000 1.00000000 0.00410000
vn 0.00120000 0.41490000 -0.90990000
vn 0.00120000 0.41490000 -0.90990000
vn -0.00040000 -0.00010000 -1.00000000
vn -0.98540000 0.17040000 -0.00510000
vn -0.98540000 0.17040000 -0.00510000
vn -1.00000000 0.00180000 -0.00610000
vn 0.00470000 -0.00500000 1.00000000
vn -0.01190000 0.99970000 0.02190000
vn 1.00000000 -0.00000000 0.00890000
vn 0.00020000 1.00000000 0.00410000
vn -0.00110000 0.03460000 0.99940000
vn 0.99830000 0.05880000 0.00080000
vn -0.00110000 0.03460000 0.99940000
vn -0.01670000 0.99970000 0.01740000
vn 0.99830000 0.05880000 0.00080000
vn -0.99500000 0.07110000 0.06990000
vn -0.00170000 0.99930000 0.03780000
vn -0.99500000 0.07110000 0.06990000
vn -0.99500000 0.07110000 0.06990000
vn -0.00110000 0.03460000 0.99940000
vn -0.49350000 0.00890000 0.86970000
vn -0.20440000 -0.80500000 0.55700000
vn -0.99510000 0.00220000 0.09910000
vn -1.00000000 0.00040000 -0.00110000
vn -0.99510000 0.00220000 0.09910000
vn -0.23020000 0.00240000 0.97310000
vn -0.20440000 -0.80500000 0.55700000
vn -0.11600000 0.00320000 0.99320000
vn -0.97720000 0.21220000 -0.00500000
vn 0.00020000 1.00000000 0.00410000
vn -0.00110000 0.03460000 0.99940000
vn -0.00170000 0.99930000 0.03780000
vn -0.97540000 0.00190000 0.22030000
vn 0.00210000 0.00210000 1.00000000
vn -0.97540000 0.00190000 0.22030000
vn -0.00280000 0.00170000 1.00000000
vn -0.20440000 -0.80500000 0.55700000
vn -0.46000000 0.00520000 0.88790000
vn -0.95060000 -0.00330000 0.31030000
vn -0.95060000 -0.00330000 0.31030000
vn -0.46000000 0.00520000 0.88790000
vn -0.98130000 -0.00040000 0.19230000
vn -0.98130000 -0.00040000 0.19230000
vt 0.01610600 0.48303400
vt 0.01610600 0.48303400
vt 0.01610600 0.48303400
vt 0.98267000 0.97033300
vt 0.98267000 0.97033300
vt 0.98267000 0.97033300
vt 0.00910800 0.48283100
vt 0.98240600 0.97366700
vt 0.00910800 0.48283100
vt 0.00390600 0.96472300
vt 0.98240600 0.97366700
vt 0.99225600 0.48034300
vt 0.98632100 0.49443000
vt 0.98632100 0.49443000
vt 0.99225600 0.48034300
vt 0.00406400 0.49514800
vt 0.98220700 0.49530300
vt 0.98220700 0.49530300
vt 0.98220700 0.49530300
vt 0.25274600 0.48281400
vt 0.25274600 0.48281400
vt 0.25274600 0.48281400
vt 0.74435500 0.97268400
vt 0.74435500 0.97268400
vt 0.25153800 0.48624800
vt 0.74645600 0.97028000
vt 0.74645600 0.97028000
vt 0.74645600 0.97028000
vt 0.73217800 0.48054700
vt 0.73217800 0.48054700
vt 0.73217800 0.48054700
vt 0.73777400 0.48050000
vt 0.74538000 0.49127900
vt 0.73158400 0.48624800
vt 0.74257500 0.49443400
vt 0.75365000 0.48167800
vt 0.74257500 0.49443400
vt 0.73030800 0.32271100
vt 0.73030800 0.32271100
vt 0.73030800 0.32271100
vt 0.74610900 0.32385100
vt 0.75271000 0.32187000
vt 0.73795400 0.32173600
vt 0.75271000 0.32187000
vt 0.72632400 0.40382400
vt 0.72632400 0.40382400
vt 0.07607300 0.97298600
vt 0.73766800 0.40335900
vt 0.73064100 0.40055400
vt 0.75178400 0.40136200
vt 0.08147200 0.97689300
vt 0.75178400 0.40136200
vt 0.75178400 0.40136200
vt 0.73190800 0.40539500
vt 0.07541500 0.97869700
vt 0.73190800 0.40539500
vt 0.01611800 0.00695400
vt 0.01611800 0.00695400
vt 0.01611800 0.00695400
vt 0.49176400 0.97899100
vt 0.00912400 0.00749100
vt 0.47454400 0.96472300
vt 0.49176400 0.97899100
vt 0.00912400 0.00749100
vt 0.49164700 0.97570100
vt 0.49164700 0.97570100
vt 0.49164700 0.97570100
vt 0.49141100 0.50044800
vt 0.49141100 0.50044800
vt 0.49141100 0.50044800
vt 0.48762900 0.49947700
vt 0.47429900 0.49499400
vt 0.48762900 0.49947700
vt 0.99222500 0.00639700
vt 0.99222500 0.00639700
vt 0.25257000 0.00751000
vt 0.25257000 0.00751000
vt 0.25257000 0.00751000
vt 0.72708600 0.97506400
vt 0.72708600 0.97506400
vt 0.72708600 0.97506400
vt 0.72938000 0.97760300
vt 0.25174000 0.00390600
vt 0.72938000 0.97760300
vt 0.75344700 0.00545700
vt 0.73145800 0.00390600
vt 0.73780200 0.00987900
vt 0.72869300 0.49553100
vt 0.73245700 0.49974600
vt 0.73045000 0.08961100
vt 0.06102400 0.97292100
vt 0.73755600 0.08697800
vt 0.75169400 0.08581300
vt 0.75169400 0.08581300
vt 0.72688000 0.16793700
vt 0.06594100 0.97935800
vt 0.72612200 0.08635100
vt 0.72812500 0.49893800
vt 0.72812500 0.49893800
vt 0.72812500 0.49893800
vt 0.73236300 0.00965600
vt 0.73236300 0.00965600
vt 0.73236300 0.00965600
vt 0.73174200 0.08484600
vt 0.73174200 0.08484600
vt 0.06017600 0.97900100
vt 0.72984700 0.16517100
vt 0.73205700 0.16871600
vt 0.74990300 0.16324900
vt 0.73205700 0.16871600
vt 0.73801000 0.16849500
vt 0.75359700 0.16623500
f 52/52/52 12/12/12 36/36/36
f 18/18/18 33/33/33 13/13/13
f 55/55/55 47/47/47 51/51/51
f 46/46/46 29/29/29 21/21/21
f 46/46/46 54/54/54 29/29/29
f 95/95/95 76/76/76 97/97/97
f 106/106/106 91/91/91 96/96/96
f 97/97/97 76/76/76 103/103/103
f 97/97/97 103/103/103 105/105/105
f 39/39/39 95/95/95 110/110/110
f 75/75/75 112/112/112 93/93/93
f 85/85/85 74/74/74 94/94/94
f 39/39/39 46/46/46 21/21/21
f 15/15/15 53/53/53 42/42/42
f 16/16/16 72/72/72 62/62/62
f 62/62/62 10/10/10 16/16/16
f 3/3/3 22/22/22 25/25/25
f 25/25/25 9/9/9 3/3/3
f 26/26/26 6/6/6 8/8/8
f 8/8/8 24/24/24 26/26/26
f 76/76/76 95/95/95 39/39/39
f 39/39/39 21/21/21 76/76/76
f 28/28/28 35/35/35 17/17/17
f 17/17/17 4/4/4 28/28/28
f 27/27/27 23/23/23 37/37/37
f 22/22/22 31/31/31 34/34/34
f 34/34/34 25/25/25 22/22/22
f 56/56/56 48/48/48 32/32/32
f 32/32/32 30/30/30 56/56/56
f 38/38/38 108/108/108 111/111/111
f 111/111/111 43/43/43 38/38/38
f 2/2/2 7/7/7 64/64/64
f 64/64/64 57/57/57 2/2/2
f 40/40/40 49/49/49 45/45/45
f 41/41/41 44/44/44 50/50/50
f 70/70/70 67/67/67 63/63/63
f 63/63/63 71/71/71 70/70/70
f 78/78/78 20/20/20 1/1/1
f 1/1/1 59/59/59 78/78/78
f 83/83/83 77/77/77 58/58/58
f 58/58/58 61/61/61 83/83/83
f 60/60/60 66/66/66 81/81/81
f 81/81/81 84/84/84 60/60/60
f 80/80/80 100/100/100 89/89/89
f 89/89/89 82/82/82 80/80/80
f 88/88/88 98/98/98 68/68/68
f 68/68/68 73/73/73 88/88/88
f 69/69/69 99/99/99 79/79/79
f 79/79/79 65/65/65 69/69/69
f 86/86/86 101/101/101 77/77/77
f 77/77/77 83/83/83 86/86/86
f 87/87/87 92/92/92 104/104/104
f 104/104/104 102/102/102 87/87/87
f 97/97/97 90/90/90 107/107/107
f 107/107/107 95/95/95 97/97/97
f 15/15/15 42/42/42 112/112/112
f 112/112/112 75/75/75 15/15/15
f 112/112/112 109/109/109 93/93/93
f 19/19/19 14/14/14 11/11/11
f 11/11/11 5/5/5 19/19/19

