usemtl material_0
v -0.54500000 -0.10000000 1.04500000
v -0.54500000 -0.10000000 1.04500000
v -0.54500000 -0.10000000 0.99500000
v -0.54500000 -0.07500000 1.03830100
v -0.54500000 -0.07500000 1.03830100
v -0.54500000 -0.12500000 1.03830100
v -0.54500000 -0.12500000 1.03830100
v -0.54500000 -0.05669900 1.02000000
v -0.54500000 -0.05669900 1.02000000
v -0.54500000 -0.05669900 1.02000000
v -0.54500000 -0.14330100 1.02000000
v -0.54500000 -0.14330100 1.02000000
v -0.54500000 -0.14330100 1.02000000
v -0.54500000 -0.05000000 0.99500000
v -0.54500000 -0.05000000 0.99500000
v -0.54500000 -0.15000000 0.99500000
v -0.54500000 -0.15000000 0.99500000
v -0.54500000 -0.05669900 0.97000000
v -0.54500000 -0.05669900 0.97000000
v -0.54500000 -0.05669900 0.97000000
v -0.54500000 -0.14330100 0.97000000
v -0.54500000 -0.14330100 0.97000000
v -0.54500000 -0.14330100 0.97000000
v -0.54500000 -0.07500000 0.95169900
v -0.54500000 -0.07500000 0.95169900
v -0.54500000 -0.12500000 0.95169900
v -0.54500000 -0.12500000 0.95169900
v -0.54500000 -0.10000000 0.94500000
v -0.54500000 -0.10000000 0.94500000
v -0.64500000 -0.07500000 0.99500000
v -0.64500000 -0.07500000 0.99500000
v -0.64500000 -0.07834900 0.98250000
v -0.64500000 -0.07834900 0.98250000
v -0.64500000 -0.07834900 0.98250000
v -0.64500000 -0.10000000 0.99500000
v -0.64500000 -0.08750000 0.97334900
v -0.64500000 -0.08750000 0.97334900
v -0.64500000 -0.07834900 1.00750000
v -0.64500000 -0.07834900 1.00750000
v -0.64500000 -0.07834900 1.00750000
v -0.64500000 -0.10000000 0.97000000
v -0.64500000 -0.10000000 0.97000000
v -0.64500000 -0.08750000 1.01665100
v -0.64500000 -0.08750000 1.01665100
v -0.64500000 -0.11250000 0.97334900
v -0.64500000 -0.11250000 0.97334900
v -0.64500000 -0.10000000 1.02000000
v -0.64500000 -0.10000000 1.02000000
v -0.64500000 -0.12165100 0.98250000
v -0.64500000 -0.12165100 0.98250000
v -0.64500000 -0.12165100 0.98250000
v -0.64500000 -0.11250000 1.01665100
v -0.64500000 -0.11250000 1.01665100
v -0.64500000 -0.12500000 0.99500000
v -0.64500000 -0.12500000 0.99500000
v -0.64500000 -0.12165100 1.00750000
v -0.64500000 -0.12165100 1.00750000
v -0.64500000 -0.12165100 1.00750000
v -0.60500000 -0.11500000 0.99500000
v -0.60500000 -0.11500000 0.99500000
v -0.60500000 -0.11500000 0.99500000
v -0.60500000 -0.08500000 0.99500000
v -0.60500000 -0.08500000 0.99500000
v -0.60500000 -0.08500000 0.99500000
v -0.64154300 -0.08500000 0.99500000
v -0.64154300 -0.08500000 0.99500000
v -0.64154300 -0.08500000 0.99500000
v -0.64154300 -0.11500000 0.99500000
v -0.64154300 -0.11500000 0.99500000
v -0.64154300 -0.11500000 0.99500000
v -0.60500000 -0.11500000 0.87500000
v -0.60500000 -0.11500000 0.87500000
v -0.60500000 -0.11500000 0.87500000
v -0.64154300 -0.11500000 0.87500000
v -0.64154300 -0.11500000 0.87500000
v -0.64154300 -0.11500000 0.87500000
v -0.60500000 -0.08500000 0.87500000
v -0.60500000 -0.08500000 0.87500000
v -0.60500000 -0.08500000 0.87500000
v -0.64154300 -0.08500000 0.87500000
v -0.64154300 -0.08500000 0.87500000
v -0.64154300 -0.08500000 0.87500000
vn 1.00000000 -0.00000000 -0.00000000
vn -0.24250000 -0.00000000 0.97010000
vn 1.00000000 -0.00000000 -0.00000000
vn 1.00000000 -0.00000000 -0.00000000
vn -0.24250000 0.48510000 0.84020000
vn 1.00000000 -0.00000000 -0.00000000
vn -0.24250000 -0.48510000 0.84020000
vn 1.00000000 -0.00000000 -0.00000000
vn -0.24250000 0.84020000 0.48510000
vn -0.24250000 0.84020000 0.48510000
vn 1.00000000 -0.00000000 -0.00000000
vn -0.24250000 -0.84020000 0.48510000
vn -0.24250000 -0.84020000 0.48510000
vn 1.00000000 -0.00000000 -0.00000000
vn -0.24250000 0.97010000 -0.00000000
vn -0.24250000 -0.97010000 -0.00000000
vn 1.00000000 -0.00000000 -0.00000000
vn -0.24250000 0.84020000 -0.48510000
vn -0.24250000 0.84020000 -0.48510000
vn 1.00000000 -0.00000000 -0.00000000
vn 1.00000000 -0.00000000 -0.00000000
vn -0.24250000 -0.84020000 -0.48510000
vn -0.24250000 -0.84020000 -0.48510000
vn -0.24250000 0.48510000 -0.84020000
vn 1.00000000 -0.00000000 -0.00000000
vn 1.00000000 -0.00000000 -0.00000000
vn -0.24250000 -0.48510000 -0.84020000
vn -0.24250000 -0.00000000 -0.97010000
vn 1.00000000 -0.00000000 -0.00000000
vn -1.00000000 -0.00000000 -0.00000000
vn -0.24250000 0.97010000 -0.00000000
vn -0.24250000 0.84020000 -0.48510000
vn -1.00000000 -0.00000000 -0.00000000
vn -0.24250000 0.84020000 -0.48510000
vn -1.00000000 -0.00000000 -0.00000000
vn -1.00000000 -0.00000000 -0.00000000
vn -0.24250000 0.48510000 -0.84020000
vn -1.00000000 -0.00000000 -0.00000000
vn -0.24250000 0.84020000 0.48510000
vn -0.24250000 0.84020000 0.48510000
vn -0.24250000 -0.00000000 -0.97010000
vn -1.00000000 -0.00000000 -0.00000000
vn -0.24250000 0.48510000 0.84020000
vn -1.00000000 -0.00000000 -0.00000000
vn -1.00000000 -0.00000000 -0.00000000
vn -0.24250000 -0.48510000 -0.84020000
vn -1.00000000 -0.00000000 -0.00000000
vn -0.24250000 -0.00000000 0.97010000
vn -1.00000000 -0.00000000 -0.00000000
vn -0.24250000 -0.84020000 -0.48510000
vn -0.24250000 -0.84020000 -0.48510000
vn -0.24250000 -0.48510000 0.84020000
vn -1.00000000 -0.00000000 -0.00000000
vn -1.00000000 -0.00000000 -0.00000000
vn -0.24250000 -0.97010000 -0.00000000
vn -0.24250000 -0.84020000 0.48510000
vn -0.24250000 -0.84020000 0.48510000
vn -1.00000000 -0.00000000 -0.00000000
vn 1.00000000 -0.00000000 -0.00000000
vn -0.00000000 -0.00000000 1.00000000
vn -0.00000000 -1.00000000 -0.00000000
vn -0.00000000 1.00000000 -0.00000000
vn -0.00000000 -0.00000000 1.00000000
vn 1.00000000 -0.00000000 -0.00000000
vn -0.00000000 -0.00000000 1.00000000
vn -1.00000000 -0.00000000 -0.00000000
vn -0.00000000 1.00000000 -0.00000000
vn -0.00000000 -1.00000000 -0.00000000
vn -0.00000000 -0.00000000 1.00000000
vn -1.00000000 -0.00000000 -0.00000000
vn -0.00000000 -0.00000000 -1.00000000
vn 1.00000000 -0.00000000 -0.00000000
vn -0.00000000 -1.00000000 -0.00000000
vn -0.00000000 -0.00000000 -1.00000000
vn -1.00000000 -0.00000000 -0.00000000
vn -0.00000000 -1.00000000 -0.00000000
vn 1.00000000 -0.00000000 -0.00000000
vn -0.00000000 -0.00000000 -1.00000000
vn -0.00000000 1.00000000 -0.00000000
vn -0.00000000 -0.00000000 -1.00000000
vn -0.00000000 1.00000000 -0.00000000
vn -1.00000000 -0.00000000 -0.00000000
vt 0.12017600 0.92286000
vt 0.08232500 0.90777800
vt 0.13206900 0.91967300
vt 0.12336300 0.92838000
vt 0.08848200 0.90778100
vt 0.12017600 0.91648500
vt 0.07616800 0.90778100
vt 0.12888300 0.93156700
vt 0.12017600 0.93241400
vt 0.09299000 0.90778800
vt 0.12336200 0.91096500
vt 0.07166100 0.90778800
vt 0.10786200 0.90778100
vt 0.13525700 0.93156700
vt 0.11401900 0.93241700
vt 0.10170500 0.90777800
vt 0.12888200 0.90777800
vt 0.06910300 0.93241300
vt 0.10786200 0.93241400
vt 0.14077600 0.92838000
vt 0.13525500 0.90777800
vt 0.09554800 0.90778100
vt 0.04777400 0.93241300
vt 0.06459500 0.93242200
vt 0.14396200 0.92286000
vt 0.14077500 0.91096500
vt 0.05228100 0.93242200
vt 0.05843800 0.93242500
vt 0.14396200 0.91648600
vt 0.83169600 0.38031800
vt 0.11401900 0.90777900
vt 0.06377000 0.90777800
vt 0.82893600 0.37872400
vt 0.11094000 0.90777800
vt 0.83329000 0.37437000
vt 0.82734300 0.37596400
vt 0.06151700 0.90778300
vt 0.83488300 0.38031700
vt 0.08765700 0.93242000
vt 0.11709700 0.90777800
vt 0.05843800 0.90778400
vt 0.82734300 0.37277700
vt 0.08540400 0.93241700
vt 0.83764300 0.37872400
vt 0.82893600 0.37001700
vt 0.05536000 0.90778300
vt 0.83923600 0.37596300
vt 0.08232500 0.93241600
vt 0.83169600 0.36842300
vt 0.05310600 0.90777800
vt 0.09862600 0.93241700
vt 0.07924700 0.93241700
vt 0.83923600 0.37277600
vt 0.83488300 0.36842300
vt 0.10170500 0.93241600
vt 0.10478300 0.93241700
vt 0.07699300 0.93242000
vt 0.83764300 0.37001600
vt 0.00738800 0.90777800
vt 0.14396200 0.90777800
vt 0.79561100 0.90039100
vt 0.84488100 0.90039100
vt 0.15135100 0.90777800
vt 0.00000000 0.90777800
vt 0.15135100 0.91763000
vt 0.36462300 0.90044300
vt 0.83503000 0.90039100
vt 0.80546200 0.90039100
vt 0.14396200 0.91763000
vt 0.35723400 0.90044300
vt 0.04038500 0.91762900
vt 0.00738800 0.93732800
vt 0.79561100 0.92994500
vt 0.04038500 0.90777800
vt 0.35723400 0.92999300
vt 0.80546200 0.92994500
vt 0.00000000 0.93732800
vt 0.04777400 0.91763000
vt 0.84488100 0.92994500
vt 0.04777400 0.90777800
vt 0.83503000 0.92994500
vt 0.36462300 0.92999300
f 1/1/1 3/3/3 4/4/4
f 6/6/6 3/3/3 1/1/1
f 4/4/4 3/3/3 8/8/8
f 11/11/11 3/3/3 6/6/6
f 8/8/8 3/3/3 14/14/14
f 17/17/17 3/3/3 11/11/11
f 14/14/14 3/3/3 20/20/20
f 21/21/21 3/3/3 17/17/17
f 20/20/20 3/3/3 25/25/25
f 26/26/26 3/3/3 21/21/21
f 25/25/25 3/3/3 29/29/29
f 29/29/29 3/3/3 26/26/26
f 30/30/30 33/33/33 35/35/35
f 33/33/33 36/36/36 35/35/35
f 38/38/38 30/30/30 35/35/35
f 36/36/36 42/42/42 35/35/35
f 44/44/44 38/38/38 35/35/35
f 42/42/42 45/45/45 35/35/35
f 47/47/47 44/44/44 35/35/35
f 45/45/45 49/49/49 35/35/35
f 53/53/53 47/47/47 35/35/35
f 49/49/49 54/54/54 35/35/35
f 58/58/58 53/53/53 35/35/35
f 54/54/54 58/58/58 35/35/35
f 16/16/16 13/13/13 56/56/56
f 12/12/12 52/52/52 57/57/57
f 16/16/16 56/56/56 55/55/55
f 12/12/12 7/7/7 52/52/52
f 22/22/22 16/16/16 55/55/55
f 7/7/7 48/48/48 52/52/52
f 22/22/22 55/55/55 51/51/51
f 7/7/7 2/2/2 48/48/48
f 27/27/27 23/23/23 50/50/50
f 2/2/2 43/43/43 48/48/48
f 27/27/27 50/50/50 46/46/46
f 2/2/2 5/5/5 43/43/43
f 28/28/28 27/27/27 46/46/46
f 5/5/5 39/39/39 43/43/43
f 28/28/28 46/46/46 41/41/41
f 5/5/5 10/10/10 39/39/39
f 24/24/24 28/28/28 41/41/41
f 9/9/9 31/31/31 40/40/40
f 24/24/24 41/41/41 37/37/37
f 9/9/9 15/15/15 31/31/31
f 18/18/18 24/24/24 37/37/37
f 15/15/15 34/34/34 31/31/31
f 18/18/18 37/37/37 32/32/32
f 15/15/15 19/19/19 34/34/34
f 60/60/60 63/63/63 65/65/65
f 60/60/60 65/65/65 69/69/69
f 73/73/73 61/61/61 68/68/68
f 73/73/73 68/68/68 76/76/76
f 78/78/78 71/71/71 74/74/74
f 78/78/78 74/74/74 80/80/80
f 62/62/62 79/79/79 81/81/81
f 62/62/62 81/81/81 67/67/67
f 59/59/59 72/72/72 77/77/77
f 59/59/59 77/77/77 64/64/64
f 70/70/70 66/66/66 82/82/82
f 70/70/70 82/82/82 75/75/75
