mtllib material.mtl
usemtl material_0
v -0.16645600 -0.34898600 -0.05075200
v -0.16665800 -0.04188800 -0.05072700
v -0.16764000 -0.04108300 -0.05880900
v -0.17466800 -0.34226100 -0.11830300
v -0.19024900 0.28986500 -0.24307300
v -0.16950400 0.03453900 -0.07373500
v -0.16863600 0.03839800 -0.06657400
v -0.18299800 0.32211900 -0.18321500
v -0.15037200 -0.32243300 0.08176700
v -0.16473300 -0.03871100 -0.03487400
v -0.16567600 -0.04108300 -0.04264600
v -0.15825200 -0.34226100 0.01680100
v -0.17466800 -0.34226100 -0.11830300
v -0.16764000 -0.04108300 -0.05880900
v -0.16858600 -0.03871100 -0.06658000
v -0.18257400 -0.32243300 -0.18326600
v -0.16858600 -0.03871100 -0.06658000
v -0.16945800 -0.03485300 -0.07374100
v -0.18986700 -0.29017900 -0.24311900
v -0.18257400 -0.32243300 -0.18326600
v -0.15825200 -0.34226100 0.01680100
v -0.16567600 -0.04108300 -0.04264600
v -0.16665800 -0.04188800 -0.05072700
v -0.16645600 -0.34898600 -0.05075200
v -0.16691400 0.34867200 -0.05069600
v -0.16671200 0.04157400 -0.05072100
v -0.16573000 0.04077000 -0.04263900
v -0.15870200 0.34194700 0.01685500
v -0.18986700 -0.29017900 -0.24311900
v -0.16945800 -0.03485300 -0.07374100
v -0.17022500 -0.02966500 -0.08001900
v -0.19627300 -0.24681600 -0.29560200
v -0.20546800 -0.13364800 -0.37065800
v -0.17132500 -0.01612700 -0.08899800
v -0.17161600 -0.00829800 -0.09135200
v -0.20790200 -0.06820600 -0.39033600
v -0.15870200 0.34194700 0.01685500
v -0.16573000 0.04077000 -0.04263900
v -0.16478400 0.03839800 -0.03486800
v -0.15079600 0.32211900 0.08181800
v -0.16863600 0.03839800 -0.06657400
v -0.16769400 0.04077000 -0.05880200
v -0.17511700 0.34194800 -0.11824900
v -0.18299800 0.32211900 -0.18321500
v -0.20790200 -0.06820600 -0.39033600
v -0.17161600 -0.00829800 -0.09135200
v -0.17171800 -0.00015700 -0.09215000
v -0.20875800 -0.00015700 -0.39700700
v -0.16478400 0.03839800 -0.03486800
v -0.16391200 0.03453900 -0.02770700
v -0.14350200 0.28986500 0.14167100
v -0.15079600 0.32211900 0.08181800
v -0.17511700 0.34194800 -0.11824900
v -0.16769400 0.04077000 -0.05880200
v -0.16671200 0.04157400 -0.05072100
v -0.16691400 0.34867200 -0.05069600
v -0.12461200 -0.00015700 0.29555800
v -0.16165200 -0.00015700 -0.00929800
v -0.16174300 -0.00829800 -0.01009700
v -0.12537800 -0.06820500 0.28887800
v -0.14350200 0.28986500 0.14167100
v -0.16391200 0.03453900 -0.02770700
v -0.16314500 0.02935100 -0.02142900
v -0.13709700 0.24650300 0.19415400
v -0.12790200 0.13333400 0.26921000
v -0.16204500 0.01581300 -0.01245000
v -0.16175400 0.00798400 -0.01009600
v -0.12546800 0.06789200 0.28888800
v -0.12537800 -0.06820500 0.28887800
v -0.16174300 -0.00829800 -0.01009700
v -0.16202400 -0.01612700 -0.01245200
v -0.12772700 -0.13364800 0.26918900
v -0.16314500 0.02935100 -0.02142900
v -0.16251500 0.02302600 -0.01628000
v -0.13183200 0.19363000 0.23719600
v -0.13709700 0.24650300 0.19415400
v -0.12546800 0.06789200 0.28888800
v -0.16175400 0.00798400 -0.01009600
v -0.16165200 -0.00015700 -0.00929800
v -0.12461200 -0.00015700 0.29555800
v -0.17022500 -0.02966500 -0.08001900
v -0.17085400 -0.02334000 -0.08516800
v -0.20153800 -0.19394400 -0.33864400
v -0.19627300 -0.24681600 -0.29560200
v -0.13183200 0.19363000 0.23719600
v -0.16251500 0.02302600 -0.01628000
v -0.16204500 0.01581300 -0.01245000
v -0.12790200 0.13333400 0.26921000
v -0.13677200 -0.24681600 0.19411500
v -0.16310600 -0.02966500 -0.02143300
v -0.16386600 -0.03485300 -0.02771300
v -0.14312100 -0.29017900 0.14162500
v -0.20153800 -0.19394400 -0.33864400
v -0.17085400 -0.02334000 -0.08516800
v -0.17132500 -0.01612700 -0.08899800
v -0.20546800 -0.13364800 -0.37065800
v -0.16202400 -0.01612700 -0.01245200
v -0.16248500 -0.02334000 -0.01628300
v -0.13157700 -0.19394300 0.23716600
v -0.12772700 -0.13364800 0.26918900
v -0.14312100 -0.29017900 0.14162500
v -0.16386600 -0.03485300 -0.02771300
v -0.16473300 -0.03871100 -0.03487400
v -0.15037200 -0.32243300 0.08176700
v -0.17171800 -0.00015700 -0.09215000
v -0.17162700 0.00798400 -0.09135100
v -0.20799200 0.06789200 -0.39032600
v -0.20875800 -0.00015700 -0.39700700
v -0.13157700 -0.19394300 0.23716600
v -0.16248500 -0.02334000 -0.01628300
v -0.16310600 -0.02966500 -0.02143300
v -0.13677200 -0.24681600 0.19411500
v -0.17134600 0.01581300 -0.08899600
v -0.17088500 0.02302600 -0.08516500
v -0.20179300 0.19363000 -0.33861400
v -0.20564300 0.13333400 -0.37063700
v -0.20799200 0.06789200 -0.39032600
v -0.17162700 0.00798400 -0.09135100
v -0.17134600 0.01581300 -0.08899600
v -0.20564300 0.13333400 -0.37063700
v -0.20179300 0.19363000 -0.33861400
v -0.17088500 0.02302600 -0.08516500
v -0.17026300 0.02935100 -0.08001500
v -0.19659700 0.24650200 -0.29556300
v -0.19659700 0.24650200 -0.29556300
v -0.17026300 0.02935100 -0.08001500
v -0.16950400 0.03453900 -0.07373500
v -0.19024900 0.28986500 -0.24307300
vn -0.99270000 -0.00070000 0.12060000
vn -0.99270000 -0.00070000 0.12060000
vn -0.99270000 -0.00070000 0.12060000
vn -0.99270000 -0.00070000 0.12060000
vn -0.99270000 -0.00070000 0.12060000
vn -0.99270000 -0.00070000 0.12060000
vn -0.99270000 -0.00070000 0.12060000
vn -0.99270000 -0.00070000 0.12060000
vn -0.99270000 -0.00070000 0.12060000
vn -0.99270000 -0.00070000 0.12060000
vn -0.99270000 -0.00070000 0.12060000
vn -0.99270000 -0.00070000 0.12060000
vn -0.99270000 -0.00070000 0.12060000
vn -0.99270000 -0.00070000 0.12060000
vn -0.99270000 -0.00070000 0.12060000
vn -0.99270000 -0.00070000 0.12060000
vn -0.99270000 -0.00070000 0.12060000
vn -0.99270000 -0.00070000 0.12060000
vn -0.99270000 -0.00070000 0.12060000
vn -0.99270000 -0.00070000 0.12060000
vn -0.99270000 -0.00070000 0.12060000
vn -0.99270000 -0.00070000 0.12060000
vn -0.99270000 -0.00070000 0.12060000
vn -0.99270000 -0.00070000 0.12060000
vn -0.99270000 -0.00070000 0.12060000
vn -0.99270000 -0.00070000 0.12060000
vn -0.99270000 -0.00070000 0.12060000
vn -0.99270000 -0.00070000 0.12060000
vn -0.99270000 -0.00070000 0.12060000
vn -0.99270000 -0.00070000 0.12060000
vn -0.99270000 -0.00070000 0.12060000
vn -0.99270000 -0.00070000 0.12060000
vn -0.99270000 -0.00070000 0.12060000
vn -0.99270000 -0.00070000 0.12060000
vn -0.99270000 -0.00070000 0.12060000
vn -0.99270000 -0.00070000 0.12060000
vn -0.99270000 -0.00070000 0.12060000
vn -0.99270000 -0.00070000 0.12060000
vn -0.99270000 -0.00070000 0.12060000
vn -0.99270000 -0.00070000 0.12060000
vn -0.99270000 -0.00070000 0.12060000
vn -0.99270000 -0.00070000 0.12060000
vn -0.99270000 -0.00070000 0.12060000
vn -0.99270000 -0.00070000 0.12060000
vn -0.99270000 -0.00070000 0.12060000
vn -0.99270000 -0.00070000 0.12060000
vn -0.99270000 -0.00070000 0.12060000
vn -0.99270000 -0.00070000 0.12060000
vn -0.99270000 -0.00070000 0.12060000
vn -0.99270000 -0.00070000 0.12060000
vn -0.99270000 -0.00070000 0.12060000
vn -0.99270000 -0.00070000 0.12060000
vn -0.99270000 -0.00070000 0.12060000
vn -0.99270000 -0.00070000 0.12060000
vn -0.99270000 -0.00070000 0.12060000
vn -0.99270000 -0.00070000 0.12060000
vn -0.99270000 -0.00070000 0.12060000
vn -0.99270000 -0.00070000 0.12060000
vn -0.99270000 -0.00070000 0.12060000
vn -0.99270000 -0.00070000 0.12060000
vn -0.99270000 -0.00070000 0.12060000
vn -0.99270000 -0.00070000 0.12060000
vn -0.99270000 -0.00070000 0.12060000
vn -0.99270000 -0.00070000 0.12060000
vn -0.99270000 -0.00070000 0.12060000
vn -0.99270000 -0.00070000 0.12060000
vn -0.99270000 -0.00070000 0.12060000
vn -0.99270000 -0.00070000 0.12060000
vn -0.99270000 -0.00070000 0.12060000
vn -0.99270000 -0.00070000 0.12060000
vn -0.99270000 -0.00070000 0.12060000
vn -0.99270000 -0.00070000 0.12060000
vn -0.99270000 -0.00070000 0.12060000
vn -0.99270000 -0.00070000 0.12060000
vn -0.99270000 -0.00070000 0.12060000
vn -0.99270000 -0.00070000 0.12060000
vn -0.99270000 -0.00070000 0.12060000
vn -0.99270000 -0.00070000 0.12060000
vn -0.99270000 -0.00070000 0.12060000
vn -0.99270000 -0.00070000 0.12060000
vn -0.99270000 -0.00070000 0.12060000
vn -0.99270000 -0.00070000 0.12060000
vn -0.99270000 -0.00070000 0.12060000
vn -0.99270000 -0.00070000 0.12060000
vn -0.99270000 -0.00070000 0.12060000
vn -0.99270000 -0.00070000 0.12060000
vn -0.99270000 -0.00070000 0.12060000
vn -0.99270000 -0.00070000 0.12060000
vn -0.99270000 -0.00070000 0.12060000
vn -0.99270000 -0.00070000 0.12060000
vn -0.99270000 -0.00070000 0.12060000
vn -0.99270000 -0.00070000 0.12060000
vn -0.99270000 -0.00070000 0.12060000
vn -0.99270000 -0.00070000 0.12060000
vn -0.99270000 -0.00070000 0.12060000
vn -0.99270000 -0.00070000 0.12060000
vn -0.99270000 -0.00070000 0.12060000
vn -0.99270000 -0.00070000 0.12060000
vn -0.99270000 -0.00070000 0.12060000
vn -0.99270000 -0.00070000 0.12060000
vn -0.99270000 -0.00070000 0.12060000
vn -0.99270000 -0.00070000 0.12060000
vn -0.99270000 -0.00070000 0.12060000
vn -0.99270000 -0.00070000 0.12060000
vn -0.99270000 -0.00070000 0.12060000
vn -0.99270000 -0.00070000 0.12060000
vn -0.99270000 -0.00070000 0.12060000
vn -0.99270000 -0.00070000 0.12060000
vn -0.99270000 -0.00070000 0.12060000
vn -0.99270000 -0.00070000 0.12060000
vn -0.99270000 -0.00070000 0.12060000
vn -0.99270000 -0.00070000 0.12060000
vn -0.99270000 -0.00070000 0.12060000
vn -0.99270000 -0.00070000 0.12060000
vn -0.99270000 -0.00070000 0.12060000
vn -0.99270000 -0.00070000 0.12060000
vn -0.99270000 -0.00070000 0.12060000
vn -0.99270000 -0.00070000 0.12060000
vn -0.99270000 -0.00070000 0.12060000
vn -0.99270000 -0.00070000 0.12060000
vn -0.99270000 -0.00070000 0.12060000
vn -0.99270000 -0.00070000 0.12060000
vn -0.99270000 -0.00070000 0.12060000
vn -0.99270000 -0.00070000 0.12060000
vn -0.99270000 -0.00070000 0.12060000
vn -0.99270000 -0.00070000 0.12060000
vn -0.99270000 -0.00070000 0.12060000
vn -0.99270000 -0.00070000 0.12060000
vt 0.83403200 0.19938700
vt 0.69372000 0.19990900
vt 0.69336600 0.20363100
vt 0.83107600 0.23049000
vt 0.54247000 0.28901600
vt 0.65883900 0.21063200
vt 0.65706300 0.20734300
vt 0.52763000 0.26152100
vt 0.82167200 0.13844000
vt 0.69224100 0.19261800
vt 0.69333800 0.19619100
vt 0.83084300 0.16830700
vt 0.83107600 0.23049000
vt 0.69336600 0.20363100
vt 0.69229600 0.20721100
vt 0.82212700 0.26042400
vt 0.69229600 0.20721100
vt 0.69054500 0.21051400
vt 0.80749300 0.28802800
vt 0.82212700 0.26042400
vt 0.83084300 0.16830700
vt 0.69333800 0.19619100
vt 0.69372000 0.19990900
vt 0.83403200 0.19938700
vt 0.51527100 0.20057400
vt 0.65558500 0.20005100
vt 0.65593800 0.19633100
vt 0.51822800 0.16947100
vt 0.80749300 0.28802800
vt 0.69054500 0.21051400
vt 0.68818500 0.21341300
vt 0.78777100 0.31226000
vt 0.73619300 0.34700200
vt 0.68201400 0.21756900
vt 0.67844100 0.21866600
vt 0.70632600 0.35617400
vt 0.51822800 0.16947100
vt 0.65593800 0.19633100
vt 0.65700900 0.19274900
vt 0.52717600 0.13953600
vt 0.65706300 0.20734300
vt 0.65596700 0.20376900
vt 0.51845900 0.23165400
vt 0.52763000 0.26152100
vt 0.70632600 0.35617400
vt 0.67844100 0.21866600
vt 0.67472300 0.21904800
vt 0.67524600 0.35936200
vt 0.65700900 0.19274900
vt 0.65876000 0.18944700
vt 0.54181000 0.11193200
vt 0.52717600 0.13953600
vt 0.51845900 0.23165400
vt 0.65596700 0.20376900
vt 0.65558500 0.20005100
vt 0.51527100 0.20057400
vt 0.67405900 0.04060100
vt 0.67458100 0.18091300
vt 0.67830200 0.18126700
vt 0.70516100 0.04355800
vt 0.54181000 0.11193200
vt 0.65876000 0.18944700
vt 0.66112000 0.18654800
vt 0.56153400 0.08770100
vt 0.61311200 0.05296000
vt 0.66729000 0.18239200
vt 0.67086300 0.18129400
vt 0.64297900 0.04378900
vt 0.70516100 0.04355800
vt 0.67830200 0.18126700
vt 0.68188400 0.18233700
vt 0.73509500 0.05250600
vt 0.66112000 0.18654800
vt 0.66400100 0.18416700
vt 0.58561700 0.06779900
vt 0.56153400 0.08770100
vt 0.64297900 0.04378900
vt 0.67086300 0.18129400
vt 0.67458100 0.18091300
vt 0.67405900 0.04060100
vt 0.68818500 0.21341300
vt 0.68530400 0.21579400
vt 0.76368700 0.33216300
vt 0.78777100 0.31226000
vt 0.58561700 0.06779900
vt 0.66400100 0.18416700
vt 0.66729000 0.18239200
vt 0.61311200 0.05296000
vt 0.78693000 0.08686300
vt 0.68808500 0.18644700
vt 0.69046600 0.18932800
vt 0.80683200 0.11094600
vt 0.76368700 0.33216300
vt 0.68530400 0.21579400
vt 0.68201400 0.21756900
vt 0.73619300 0.34700200
vt 0.68188400 0.18233700
vt 0.68518600 0.18408800
vt 0.76269900 0.06714000
vt 0.73509500 0.05250600
vt 0.80683200 0.11094600
vt 0.69046600 0.18932800
vt 0.69224100 0.19261800
vt 0.82167200 0.13844000
vt 0.67472300 0.21904800
vt 0.67100200 0.21869400
vt 0.64414300 0.35640600
vt 0.67524600 0.35936200
vt 0.76269900 0.06714000
vt 0.68518600 0.18408800
vt 0.68808500 0.18644700
vt 0.78693000 0.08686300
vt 0.66742100 0.21762300
vt 0.66411900 0.21587300
vt 0.58660400 0.33282300
vt 0.61420800 0.34745700
vt 0.64414300 0.35640600
vt 0.67100200 0.21869400
vt 0.66742100 0.21762300
vt 0.61420800 0.34745700
vt 0.58660400 0.33282300
vt 0.66411900 0.21587300
vt 0.66122000 0.21351300
vt 0.56237200 0.31310000
vt 0.56237200 0.31310000
vt 0.66122000 0.21351300
vt 0.65883900 0.21063200
vt 0.54247000 0.28901600
f 1/1/1 2/2/2 3/3/3
f 1/1/1 3/3/3 4/4/4
f 5/5/5 6/6/6 7/7/7
f 5/5/5 7/7/7 8/8/8
f 9/9/9 10/10/10 11/11/11
f 9/9/9 11/11/11 12/12/12
f 13/13/13 14/14/14 15/15/15
f 13/13/13 15/15/15 16/16/16
f 17/17/17 18/18/18 19/19/19
f 17/17/17 19/19/19 20/20/20
f 21/21/21 22/22/22 23/23/23
f 21/21/21 23/23/23 24/24/24
f 25/25/25 26/26/26 27/27/27
f 25/25/25 27/27/27 28/28/28
f 29/29/29 30/30/30 31/31/31
f 29/29/29 31/31/31 32/32/32
f 33/33/33 34/34/34 35/35/35
f 33/33/33 35/35/35 36/36/36
f 37/37/37 38/38/38 39/39/39
f 37/37/37 39/39/39 40/40/40
f 41/41/41 42/42/42 43/43/43
f 41/41/41 43/43/43 44/44/44
f 45/45/45 46/46/46 47/47/47
f 45/45/45 47/47/47 48/48/48
f 49/49/49 50/50/50 51/51/51
f 49/49/49 51/51/51 52/52/52
f 53/53/53 54/54/54 55/55/55
f 53/53/53 55/55/55 56/56/56
f 57/57/57 58/58/58 59/59/59
f 57/57/57 59/59/59 60/60/60
f 61/61/61 62/62/62 63/63/63
f 61/61/61 63/63/63 64/64/64
f 65/65/65 66/66/66 67/67/67
f 65/65/65 67/67/67 68/68/68
f 69/69/69 70/70/70 71/71/71
f 69/69/69 71/71/71 72/72/72
f 73/73/73 74/74/74 75/75/75
f 73/73/73 75/75/75 76/76/76
f 77/77/77 78/78/78 79/79/79
f 77/77/77 79/79/79 80/80/80
f 81/81/81 82/82/82 83/83/83
f 81/81/81 83/83/83 84/84/84
f 85/85/85 86/86/86 87/87/87
f 85/85/85 87/87/87 88/88/88
f 89/89/89 90/90/90 91/91/91
f 89/89/89 91/91/91 92/92/92
f 93/93/93 94/94/94 95/95/95
f 93/93/93 95/95/95 96/96/96
f 97/97/97 98/98/98 99/99/99
f 97/97/97 99/99/99 100/100/100
f 101/101/101 102/102/102 103/103/103
f 101/101/101 103/103/103 104/104/104
f 105/105/105 106/106/106 107/107/107
f 105/105/105 107/107/107 108/108/108
f 109/109/109 110/110/110 111/111/111
f 109/109/109 111/111/111 112/112/112
f 113/113/113 114/114/114 115/115/115
f 113/113/113 115/115/115 116/116/116
f 117/117/117 118/118/118 119/119/119
f 117/117/117 119/119/119 120/120/120
f 121/121/121 122/122/122 123/123/123
f 121/121/121 123/123/123 124/124/124
f 125/125/125 126/126/126 127/127/127
f 125/125/125 127/127/127 128/128/128

