# Blender 4.4.3
# www.blender.org
o DockBoard_A05_Convex_Hull_Border_L
v 0.887141 0.750925 0.281087
v -0.908526 0.751141 0.022110
v 0.844509 0.696084 0.353902
v 0.427733 0.695872 0.354041
v 0.426195 0.750774 0.353998
v -0.866635 0.696097 0.102478
v 0.844218 0.751084 0.353963
v -0.907260 0.750437 0.020467
v -0.908740 0.696472 0.022522
v 0.887071 0.695948 0.280986
v -0.907579 0.695776 0.020789
v -0.867028 0.750783 0.102211
vn -0.0643 0.0853 0.9943
vn -0.2853 -0.6457 0.7083
vn -0.6002 -0.5702 -0.5609
vn 0.1057 -0.9877 -0.1151
vn 0.2051 -0.9778 0.0436
vn 0.0001 -1.0000 -0.0002
vn 0.8311 -0.2355 -0.5037
vn 0.4932 -0.7086 0.5047
vn 0.0243 0.9841 -0.1757
vn -0.1853 0.9824 0.0246
vn 0.0004 1.0000 -0.0019
vn 0.3165 -0.0348 0.9480
vn -0.7535 0.5667 -0.3332
vn -0.5539 0.6945 0.4593
vn -0.1907 0.7294 0.6570
vn -0.2450 0.6782 -0.6929
vn 0.9751 -0.0717 -0.2100
vn -0.9262 -0.3170 -0.2039
vt 1.717409 0.723181
vt 1.717091 0.068420
vt 1.753255 0.040893
vt 1.753278 0.948449
vt 1.717053 0.929272
vt 1.690549 0.930593
vt 1.575649 0.916436
vt 1.659711 0.025723
vt 1.690588 0.068068
vt 1.690210 0.723888
vt 1.610614 0.038150
vt 1.611599 0.039455
vt 1.717342 0.021665
vt 1.717310 0.020518
vt 1.688321 0.023607
vt 1.752450 0.040198
vt 1.583693 0.954260
vt 1.583681 0.037893
vt 1.717336 0.972991
s 1
f 4/1/1 6/2/2 11/3/3
s 0
f 4/1/4 11/3/5 10/4/6
s 1
f 4/1/1 10/4/7 3/5/8
s 0
f 7/6/9 1/7/10 2/8/11
s 1
f 7/6/12 2/8/13 12/9/14
f 7/6/12 12/9/14 5/10/15
f 8/11/16 2/12/13 1/7/17
f 12/9/14 2/8/13 9/13/18 6/2/2
f 5/10/15 12/9/14 6/2/2 4/1/1
f 7/6/12 5/10/15 4/1/1 3/5/8
f 11/14/3 9/13/18 2/8/13 8/15/16
f 6/2/2 9/16/18 11/3/3
f 8/11/16 1/7/17 10/17/7 11/18/3
f 3/5/8 10/19/7 1/7/17 7/6/12
