# Blender 4.4.3
# www.blender.org
o DockBoard_A05_Convex_Hull_Platform
v 0.337951 -0.758950 0.279227
v 0.326903 0.759001 0.278706
v 0.800188 -0.762000 0.264592
v 0.800189 0.762000 0.264592
v -1.018799 0.762000 0.003014
v -1.018799 -0.762000 0.003014
v 0.788326 -0.762000 0.276398
v 0.788326 0.762000 0.276398
v -1.009254 0.762000 0.016413
v -1.009254 -0.762000 0.016413
v -1.021851 0.759000 0.002515
v 0.326894 -0.762000 0.275811
v 0.326895 0.762001 0.275811
v 0.803270 -0.759085 0.264289
v -1.020298 0.758296 0.000552
v -1.021851 -0.759000 0.002515
v 0.791675 -0.759000 0.277197
v 0.786636 -0.759000 0.279398
v 0.789070 0.759312 0.278861
v -1.012710 0.759000 0.016598
v -1.008132 0.759000 0.019687
v -1.010960 -0.759314 0.018340
v 0.315779 -0.758988 0.277064
v 0.803366 0.759020 0.264346
v -1.020276 -0.758381 0.000566
v 0.518094 -0.660645 0.000046
v 0.517940 0.660522 0.000087
vn 0.1220 -0.5733 0.8102
vn 0.4408 -0.4265 0.7898
vn 0.4624 -0.5176 0.7199
vn -0.0219 -0.9031 -0.4288
vn -0.5905 -0.7883 0.1727
vn -0.7658 -0.0758 0.6386
vn -0.5866 -0.6541 0.4775
vn -0.2861 0.6091 0.7397
vn -0.4166 0.2537 0.8730
vn -0.5112 0.4982 0.7004
vn 0.2509 0.5867 -0.7700
vn -0.2090 0.9522 0.2230
vn -0.2326 0.7539 -0.6145
vn -0.0345 -0.4417 -0.8965
vn -0.3646 0.8592 0.3589
vn -0.0104 0.6322 0.7747
vn 0.1741 0.9831 -0.0558
vn -0.1571 0.7932 -0.5883
vn 0.0593 0.9092 -0.4121
vn 0.3774 0.8561 -0.3531
vn -0.8871 -0.0000 0.4617
vn -0.6153 0.4690 -0.6336
vn -0.7841 -0.0000 -0.6207
vn -0.8388 -0.0003 0.5445
vn -0.8417 0.2779 0.4629
vn -0.9504 -0.0978 0.2952
vn 0.6326 -0.6103 -0.4768
vn 0.3884 -0.5399 0.7468
vn 0.4827 -0.7682 -0.4205
vn -0.2523 -0.5358 -0.8058
vn 0.6546 0.7333 -0.1838
vn 0.4840 0.0667 0.8725
vn 0.2551 -0.9455 -0.2025
vn -0.2354 -0.8586 -0.4554
vn 0.0592 -0.9095 -0.4115
vn 0.1519 -0.7430 0.6518
vn -0.4997 -0.3536 0.7907
vn 0.1114 0.5157 0.8495
vn -0.1885 -0.6628 0.7247
vn 0.6795 -0.0000 -0.7337
vn 0.6280 0.3134 -0.7123
vn -0.0003 -0.0000 -1.0000
vn -0.0037 0.7593 -0.6507
vt 2.372763 5.260934
vt 2.368123 5.270684
vt 2.362471 5.256677
vt 2.399759 0.799125
vt 2.372763 0.827939
vt 2.365532 0.823804
vt 2.401107 0.788914
vt -1.342176 0.827987
vt -1.338238 0.817519
vt -1.331885 0.832107
vt -1.378721 0.793712
vt -1.369115 0.788995
vt -1.369171 0.799158
vt 2.409751 0.794123
vt -1.342176 4.139125
vt -1.342177 5.260769
vt -1.369171 5.289737
vt 0.000000 0.000000
vt 2.359446 0.772096
vt 2.362471 0.777804
vt 2.362471 0.818665
vt -1.331885 0.818665
vt 0.013654 0.017832
vt 2.399721 5.299157
vt 2.399760 5.289879
vt -1.219834 4.868330
vt -0.592128 2.344703
vt 2.372763 4.139117
vt 2.362140 5.316161
vt 2.362471 4.113482
vt -1.334106 5.262827
vt -1.331884 4.165080
vt -1.369799 5.299164
vt 2.362471 4.165694
vt -0.265124 0.813990
vt 0.091482 0.677956
vt 0.096924 0.684550
vt -1.172320 3.637769
vt -0.689267 2.130207
s 1
f 7/1/1 17/2/2 18/3/3
f 6/4/4 10/5/5 22/6/6 16/7/7
f 9/8/8 20/9/9 21/10/10
f 15/11/11 11/12/12 5/13/13
f 16/7/7 25/14/14 6/4/4
f 9/8/8 13/15/15 8/16/16
f 9/8/8 8/16/16 4/17/17
f 9/8/8 4/17/17 5/13/13
s 0
f 4/17/18 27/18/19 5/13/20
s 1
f 25/19/14 16/20/7 11/18/21
s 0
f 25/19/22 11/18/23 15/18/23
s 1
f 11/18/21 16/20/7 22/21/6
s 0
f 11/18/24 22/21/25 20/22/26
s 1
f 26/23/27 14/24/28 3/25/29
f 25/14/14 26/23/30 6/4/4
f 17/18/2 24/26/31 19/27/32
f 20/9/9 22/6/6 21/18/10
s 0
f 26/23/33 3/25/34 6/18/35
s 1
f 3/25/29 7/1/1 12/28/36
f 3/25/29 12/28/36 10/5/5
f 3/25/29 10/5/5 6/4/4
f 14/29/28 24/26/31 17/18/2
f 19/27/32 18/3/3 17/2/2
f 22/6/6 10/5/5 12/28/36 23/30/37
f 19/31/32 8/16/16 13/15/15 2/32/38
f 4/17/17 8/16/16 19/31/32 24/33/31
f 12/28/36 7/1/1 18/3/3 1/34/39
f 17/2/2 7/1/1 3/25/29 14/24/28
f 20/9/9 9/8/8 5/13/13 11/12/12
f 13/15/15 9/8/8 21/10/10 2/35/38
s 0
f 24/26/40 14/18/40 26/23/40 27/18/40
s 1
f 12/28/36 1/34/39 23/30/37
f 27/36/41 4/17/17 24/33/31
s 0
f 26/23/42 25/18/42 15/18/42 27/37/42
s 1
f 23/30/37 2/18/38 21/10/10 22/6/6
f 1/34/39 18/3/3 19/27/32 2/38/38
f 15/11/11 5/13/13 27/36/43
f 2/39/38 23/30/37 1/34/39
